<svg width="663" height="265" viewBox="0 0 663 265" fill="none" xmlns="http://www.w3.org/2000/svg">
<path d="M265 92.3775C265 106.765 282.51 113.842 292.507 103.495L381.886 10.9859C388.669 3.96493 398.013 0 407.776 0H639C652.255 0 663 10.7452 663 24V241C663 254.255 652.255 265 639 265H557.797C544.542 265 533.797 254.255 533.797 241V162.338C533.797 147.984 516.358 140.891 506.339 151.17L405.983 254.128C399.207 261.08 389.911 265 380.203 265H288C274.745 265 264 254.255 264 241V173.4C264 159.042 246.551 151.951 236.535 162.239L147.1 254.111C140.323 261.073 131.02 265 121.304 265H24C10.7452 265 0 254.255 0 241V24C0 10.7452 10.7452 0 24 0H241C254.255 0 265 10.7452 265 24V92.3775Z" fill="white"/>
</svg>
