<svg width="128" height="30" viewBox="0 0 128 30" fill="none" xmlns="http://www.w3.org/2000/svg">
<g clip-path="url(#clip0_5_84)">
<path fill-rule="evenodd" clip-rule="evenodd" d="M40.7372 8.57494H38.8497L33.3642 20.9674H35.3432C37.3634 16.287 37.4523 16.0206 39.7562 10.713C42.3616 16.664 41.7665 15.3189 44.1709 20.9674H46.2223L40.7372 8.57494ZM55.1536 8.66314V20.9674H57.0871V8.66314H55.1536ZM77.4502 20.9674L74.0487 16.2596L74.2497 16.2058C74.6688 16.0962 75.0702 15.9289 75.4421 15.7088C75.7906 15.5017 76.1017 15.2387 76.3623 14.9304C76.6241 14.616 76.8285 14.259 76.9663 13.8755C77.1263 13.4402 77.1852 12.9732 77.1852 12.5123C77.1929 11.9609 77.0854 11.4138 76.8694 10.9053C76.6682 10.4397 76.3603 10.0265 75.9701 9.6982C75.5484 9.34539 75.0507 9.10018 74.5253 8.93436C73.9026 8.73811 73.2445 8.66226 72.5927 8.66226H67.0531V20.9666H68.9866V16.5807H72.0213L75.1624 20.9696H77.4484L77.4502 20.9674ZM75.1972 12.6301C75.1972 13.2986 74.9573 13.8649 74.4306 14.2931C73.8628 14.7535 73.1395 14.9044 72.4203 14.9044H68.9871V10.3756H72.4024C73.1114 10.3756 73.8726 10.4986 74.4467 10.9392C74.9931 11.3582 75.1977 11.9628 75.1977 12.6318L75.1972 12.6301ZM86.4771 8.66093V20.9652H92.228C92.8654 20.9715 93.5011 20.8974 94.1195 20.7447C94.6315 20.6124 95.1309 20.4104 95.5629 20.1044C95.9457 19.8373 96.2576 19.483 96.4721 19.0715C96.7026 18.6283 96.7928 18.1432 96.7928 17.647C96.799 17.2764 96.7403 16.9074 96.6195 16.5564C96.5134 16.2583 96.3478 15.9841 96.1325 15.7502C95.9122 15.5148 95.656 15.3148 95.3731 15.1575C95.053 14.981 94.7182 14.832 94.3724 14.7121L94.065 14.6032L94.3532 14.4515C94.5837 14.3294 94.8034 14.1883 95.0099 14.0298C95.4496 13.704 95.7736 13.2493 95.9355 12.7306C96.0379 12.4129 96.0877 12.081 96.083 11.7476C96.083 10.8276 95.7519 10.0691 95.0108 9.50107C94.1709 8.85586 93.0848 8.66314 92.0444 8.66314H86.4771V8.66093ZM91.607 13.9888H88.4106V10.3399H91.7683C92.3643 10.3399 93.0303 10.4307 93.5195 10.7946C93.956 11.1191 94.1477 11.5765 94.1477 12.111C94.1477 12.7024 93.9386 13.2096 93.4297 13.5403C92.8963 13.887 92.2347 13.9888 91.607 13.9888ZM92.2597 19.2947H88.4106V15.5558H92.0989C92.769 15.5558 93.5888 15.6378 94.1539 16.0316C94.6306 16.3641 94.8589 16.8334 94.8589 17.4071C94.8589 17.9968 94.6417 18.4925 94.1441 18.829C93.6017 19.1946 92.9053 19.2942 92.262 19.2942L92.2597 19.2947ZM106.01 8.66623V20.9705H107.944V8.66623H106.01ZM127.058 10.4303V8.66623H116.999V10.4303H121.043V20.9705H123.013V10.4303H127.058Z" fill="black"/>
<path d="M22.6213 11.1658V19.1204C22.6213 19.4096 22.5049 19.687 22.2977 19.8916C22.0905 20.0961 21.8095 20.211 21.5165 20.211H20.0159C19.7229 20.211 19.4419 20.0961 19.2347 19.8916C19.0275 19.687 18.9111 19.4096 18.9111 19.1204V13.5552C18.9111 13.266 19.0275 12.9885 19.2347 12.784C19.4419 12.5795 19.7229 12.4646 20.0159 12.4646H20.7003V11.1658C20.7003 9.94854 20.4574 8.7432 19.9856 7.61861C19.5137 6.49401 18.8221 5.47218 17.9501 4.61145C17.0782 3.75072 16.0431 3.06795 14.9039 2.60213C13.7647 2.13631 12.5437 1.89655 11.3107 1.89655C10.0776 1.89655 8.8566 2.13631 7.71739 2.60213C6.57818 3.06795 5.54308 3.75072 4.67116 4.61145C3.79925 5.47218 3.10762 6.49401 2.63574 7.61861C2.16387 8.7432 1.921 9.94854 1.921 11.1658V12.4646H2.60541C2.89842 12.4646 3.17943 12.5795 3.38662 12.784C3.59381 12.9885 3.71021 13.266 3.71021 13.5552V19.1204C3.71021 19.4096 3.59381 19.687 3.38662 19.8916C3.17943 20.0961 2.89842 20.211 2.60541 20.211H1.1048C0.811787 20.211 0.530777 20.0961 0.323587 19.8916C0.116398 19.687 0 19.4096 0 19.1204V11.1658C0 4.99909 5.06384 0.00195312 11.3107 0.00195312C17.5575 0.00195312 22.6213 4.99909 22.6213 11.1658Z" fill="black"/>
<path d="M8.36438 12.604H6.44338V19.0045H8.36438V12.604Z" fill="black"/>
<path d="M8.36438 20.7549H6.44338V25.5765H8.36438V20.7549Z" fill="black"/>
<path d="M12.2716 15.722H10.3506V21.1381H12.2716V15.722Z" fill="black"/>
<path d="M12.2716 22.8819H10.3506V25.5703H12.2716V22.8819Z" fill="black"/>
<path d="M12.2716 27.3194H10.3506V30.0003H12.2716V27.3194Z" fill="black"/>
<path d="M16.1784 12.604H14.2574V16.4329H16.1784V12.604Z" fill="black"/>
<path d="M16.1784 18.1838H14.2574V22.3408H16.1784V18.1838Z" fill="black"/>
<path d="M16.1784 24.0911H14.2574V26.8043H16.1784V24.0911Z" fill="black"/>
</g>
<defs>
<clipPath id="clip0_5_84">
<rect width="127.059" height="30" fill="white"/>
</clipPath>
</defs>
</svg>
