<svg width="251" height="20" viewBox="0 0 251 20" fill="none" xmlns="http://www.w3.org/2000/svg">
<g clip-path="url(#clip0_3_32)">
<path d="M90.7995 19.6253C84.427 19.6253 80.2936 15.0288 80.2936 10.2449V9.65193C80.2936 4.78687 84.427 0.271484 90.7995 0.271484C97.1719 0.271484 101.341 4.78687 101.341 9.65193V10.2449C101.341 15.0288 97.2073 19.6253 90.7995 19.6253ZM97.9317 9.70261C97.9317 6.21598 95.3989 3.1145 90.7995 3.1145C86.2 3.1145 83.7078 6.22105 83.7078 9.70261V10.1384C83.7078 13.6251 86.2405 16.7874 90.7995 16.7874C95.3584 16.7874 97.9317 13.6251 97.9317 10.1384V9.70261ZM18.8033 18.9208L16.4275 14.4613H5.86081L3.54586 18.9208H0L9.7258 0.920159H12.5372L22.425 18.9208H18.8033ZM11.0479 4.43213L7.13225 12.0034H15.1003L11.0479 4.43213ZM37.7685 19.6355C31.31 19.6355 28.3112 16.1184 28.3112 11.4459V0.920159H31.6645V11.4864C31.6645 14.8109 33.8528 16.7874 38.0117 16.7874C42.2819 16.7874 44.0346 14.8109 44.0346 11.4864V0.920159H47.4133V11.4206C47.4133 15.8954 44.5766 19.6253 37.7685 19.6253V19.6355ZM66.2165 3.73277V18.9361H62.8378V3.73277H54.9761V0.920159H74.0782V3.73277H66.2165ZM131.435 18.9361V4.67538L130.543 6.24639L123.006 18.9158H121.36L113.903 6.24639L113.012 4.67538V18.9208H109.714V0.920159H114.389L121.481 13.2703L122.322 14.7906L123.158 13.2703L130.184 0.920159H134.803V18.9208L131.435 18.9361ZM160.344 18.9361L157.963 14.4764H147.406L145.112 18.9361H141.566L151.292 0.935362H154.098L163.961 18.9208L160.344 18.9361ZM152.588 4.43213L148.673 12.0034H156.641L152.588 4.43213ZM177.577 3.73277V18.9361H174.203V3.73277H166.342V0.920159H185.439V3.73277H177.577ZM202.353 3.73277V18.9361H198.974V3.73277H191.112V0.920159H210.219V3.73277H202.353ZM218.537 18.9361V2.62292C219.884 2.62292 220.426 1.89317 220.426 0.920159H221.869V18.9208L218.537 18.9361ZM248.306 6.01834C246.37 4.16505 243.799 3.12411 241.119 3.10944C236.312 3.10944 233.606 6.40856 233.606 9.83943V10.1891C233.606 13.5946 236.337 16.7773 241.362 16.7773C243.992 16.7277 246.506 15.6954 248.414 13.8835L250.439 16.0171C247.912 18.3738 244.574 19.666 241.119 19.6253C234.31 19.6253 230.177 15.1909 230.177 10.3259V9.73301C230.177 4.86796 234.69 0.271484 241.281 0.271484C245.09 0.271484 248.549 1.86783 250.399 3.86454L248.306 6.01834ZM93.0283 6.52512C92.7346 6.33658 92.3782 6.27232 92.0372 6.34642C91.6963 6.42054 91.3987 6.62697 91.2098 6.9204L88.1401 11.7044C87.9504 11.9977 87.8844 12.3542 87.9566 12.696C88.0287 13.0378 88.233 13.3372 88.525 13.5287C88.6703 13.6218 88.8325 13.6852 89.0024 13.7154C89.1722 13.7456 89.3463 13.742 89.5147 13.7048C89.6832 13.6677 89.8426 13.5976 89.984 13.4986C90.1254 13.3998 90.2458 13.274 90.3385 13.1284L93.4082 8.37992C93.5029 8.23557 93.5682 8.07396 93.6003 7.90433C93.6325 7.73471 93.6308 7.56039 93.5956 7.39139C93.5603 7.22239 93.492 7.06202 93.3946 6.91945C93.2973 6.77688 93.1728 6.65494 93.0283 6.56059V6.52512Z" fill="black"/>
</g>
<defs>
<clipPath id="clip0_3_32">
<rect width="250.526" height="20" fill="white"/>
</clipPath>
</defs>
</svg>
