<svg width="115" height="29" viewBox="0 0 115 29" fill="none" xmlns="http://www.w3.org/2000/svg">
<g clip-path="url(#clip0_3_35)">
<g clip-path="url(#clip1_3_35)">
<path d="M9.87812 19.575C8.42812 19.575 7.52188 18.6688 7.52188 17.4906C7.52188 15.95 9.24375 14.5 11.0562 14.1375L6.79688 3.625H14.2281L15.5875 6.25313H10.3312L13.4125 13.775C13.6844 14.4094 13.8656 15.0438 13.8656 15.6781C13.8656 17.9438 11.6 19.575 9.87812 19.575ZM17.4906 9.0625L20.7531 14.5906C21.3696 15.7022 21.7113 16.9451 21.75 18.2156C21.75 22.3844 18.5781 25.2844 13.9562 25.2844H7.79375C3.2625 25.2844 0 22.3844 0 18.3063C0.0386574 17.0357 0.380446 15.7929 0.996875 14.6813L4.25937 9.0625H7.25L3.44375 15.5875C2.96773 16.4144 2.71769 17.3521 2.71875 18.3063C2.71875 20.8438 4.53125 22.6563 7.88437 22.6563H13.8656C17.2188 22.6563 19.0312 20.8438 19.0312 18.2156C19.0167 17.2922 18.7672 16.3878 18.3063 15.5875L14.5 9.15313H17.4906V9.0625Z" fill="black"/>
<path d="M32.3531 7.4312C35.0719 7.4312 37.0656 8.97183 37.0656 11.5093C37.0656 12.8687 36.4313 13.9562 35.2531 14.5906C36.0507 14.7961 36.7545 15.267 37.2487 15.9259C37.7429 16.5848 37.9979 17.3924 37.9719 18.2156C37.9719 20.9343 35.9781 22.6562 32.7156 22.6562H27.1875V7.4312H32.3531ZM29.725 20.3906H32.625C34.2563 20.3906 35.3438 19.575 35.3438 18.125C35.3438 16.7656 34.2563 15.8593 32.625 15.8593H29.725V20.3906ZM29.725 13.6843H32.1719C33.5313 13.6843 34.5281 12.9593 34.5281 11.6906C34.5281 10.4218 33.6219 9.69683 32.1719 9.69683H29.725V13.5937V13.6843ZM50.6594 11.9625V22.6562H48.2125V21.1156C47.7954 21.6837 47.2492 22.1443 46.6188 22.4595C45.9885 22.7747 45.2922 22.9353 44.5875 22.9281C41.6875 22.9281 39.4219 20.4812 39.4219 17.3093C39.4219 14.1375 41.6875 11.7812 44.5875 11.7812C46.0375 11.7812 47.3969 12.4156 48.2125 13.5937V12.0531H50.6594V11.9625ZM41.8688 17.4C41.8688 19.2125 43.3188 20.6625 45.1313 20.6625C46.9438 20.6625 48.3031 19.2125 48.3031 17.3093C48.3031 15.4062 46.9438 14.0468 45.1313 14.0468C43.3188 14.0468 41.8688 15.4968 41.8688 17.3093V17.4ZM55.7344 22.6562H53.1969V11.9625H55.7344V13.4125C56.0812 12.8662 56.5646 12.42 57.1368 12.118C57.7091 11.816 58.3502 11.6687 58.9969 11.6906C61.5344 11.6906 63.075 13.5031 63.075 16.2218V22.6562H60.5375V16.7656C60.5375 15.0437 59.6312 14.0468 58.1812 14.0468C56.6406 14.0468 55.6438 15.225 55.6438 17.0375V22.6562H55.7344ZM73.7688 21.1156C73.3467 21.6783 72.7994 22.1351 72.1702 22.4497C71.541 22.7643 70.8472 22.9281 70.1438 22.9281C67.2438 22.9281 64.9781 20.4812 64.9781 17.3093C64.9781 14.2281 67.2438 11.6906 70.1438 11.6906C71.5938 11.6906 72.9531 12.325 73.7688 13.5031V7.34058H76.125V22.6562H73.6781V21.1156H73.7688ZM67.425 17.3093C67.425 19.1218 68.875 20.6625 70.6875 20.6625C72.5 20.6625 73.8594 19.2125 73.8594 17.3093C73.8594 15.4062 72.5 14.0468 70.6875 14.0468C68.875 14.0468 67.425 15.4968 67.425 17.3093ZM81.7438 7.4312V20.2093H87.5438V22.6562H79.2063V7.4312H81.7438ZM99.325 11.9625V22.6562H96.7875V21.1156C96.3705 21.6837 95.8242 22.1443 95.1938 22.4595C94.5635 22.7747 93.8672 22.9353 93.1625 22.9281C90.2625 22.9281 87.9969 20.4812 87.9969 17.3093C87.9969 14.1375 90.2625 11.6906 93.1625 11.6906C94.7031 11.6906 96.0625 12.325 96.7875 13.5031V11.9625H99.325ZM90.5344 17.4C90.5344 19.2125 91.8938 20.6625 93.7063 20.6625C95.5188 20.6625 96.8781 19.2125 96.8781 17.3093C96.8781 15.4062 95.5188 14.0468 93.7063 14.0468C91.8938 14.0468 90.625 15.4062 90.625 17.2187L90.5344 17.4ZM101.772 22.6562V7.4312H104.309V13.5031C104.731 12.9403 105.279 12.4835 105.908 12.169C106.537 11.8544 107.231 11.6906 107.934 11.6906C110.834 11.6906 113.1 14.1375 113.1 17.3093C113.1 20.4812 110.834 22.9281 107.934 22.9281C106.394 22.9281 105.034 22.2937 104.309 21.1156V22.6562H101.772ZM104.219 17.3093C104.219 19.1218 105.578 20.6625 107.391 20.6625C109.203 20.6625 110.563 19.2125 110.563 17.3093C110.563 15.4062 109.203 14.0468 107.391 14.0468C105.578 14.0468 104.219 15.4062 104.219 17.2187V17.3093Z" fill="black"/>
</g>
</g>
<defs>
<clipPath id="clip0_3_35">
<rect width="114.188" height="29" fill="white"/>
</clipPath>
<clipPath id="clip1_3_35">
<rect width="114.188" height="29" fill="white"/>
</clipPath>
</defs>
</svg>
