<svg width="102" height="28" viewBox="0 0 102 28" fill="none" xmlns="http://www.w3.org/2000/svg">
<path d="M24.1638 6.23253L14.3314 0.412665C13.8678 0.137553 13.3506 0 12.8309 0C12.3137 0 11.7964 0.137553 11.3304 0.412665L1.49803 6.23253C0.570912 6.78025 0 7.79566 0 8.8936V20.5333C0 21.6313 0.570912 22.6467 1.50048 23.1944C1.50048 23.1944 6.42154 26.1081 9.30294 27.8113C10.1666 28.324 11.2377 27.7337 11.328 26.7433L11.3353 26.6058V9.879L12.8333 8.99365L14.3314 9.879V26.6058L14.3387 26.7433C14.4314 27.7312 15.5 28.3215 16.3637 27.8113C19.2451 26.1056 24.1662 23.1944 24.1662 23.1944C25.0933 22.6442 25.6667 21.6313 25.6667 20.5333V8.8936C25.6642 7.79566 25.0909 6.78025 24.1638 6.23253ZM8.86622 24.63L2.73501 21.001C2.57155 20.9035 2.47151 20.7259 2.47151 20.5308V15.4388C2.47151 15.2462 2.57399 15.0661 2.73501 14.9686L8.86622 11.3396V24.63ZM2.46907 12.2024V8.8936C2.46907 8.70103 2.56911 8.52095 2.73257 8.42341L12.565 2.60356C12.6455 2.55604 12.7357 2.53103 12.8285 2.53103C12.9212 2.53103 13.0114 2.55604 13.0919 2.60356L22.9243 8.42341C23.0878 8.52095 23.1878 8.69853 23.1878 8.8936V12.2024L12.8309 6.06996L2.46907 12.2024ZM23.1927 20.5333C23.1927 20.7259 23.0927 20.906 22.9292 21.0035L16.798 24.63V11.3421L22.9292 14.9711C23.0927 15.0686 23.1927 15.2487 23.1927 15.4413V20.5333Z" fill="black"/>
<path d="M47.1003 16.4551C46.7712 17.2519 46.3209 17.91 45.7493 18.4296C45.1604 18.9839 44.4676 19.4169 43.6709 19.7287C42.8741 20.0404 41.9822 20.1963 40.9949 20.1963H38.1111V18.2218H40.9689C41.6271 18.2218 42.2246 18.1179 42.7616 17.9101C43.2812 17.7022 43.7315 17.4078 44.1125 17.0267C44.4936 16.6457 44.788 16.1954 44.9959 15.6758C45.2037 15.1562 45.3076 14.5846 45.3076 13.9611C45.3076 13.3549 45.2037 12.792 44.9959 12.2724C44.788 11.7354 44.4936 11.2938 44.1125 10.9474C43.7661 10.5836 43.3158 10.2892 42.7616 10.064C42.2074 9.85619 41.6098 9.75227 40.969 9.75227H38.1111V7.77778H40.9949C41.9129 7.77778 42.7962 7.94231 43.6449 8.27141C44.4417 8.56584 45.1431 9.0075 45.7493 9.5964C46.3382 10.1333 46.7885 10.7915 47.1003 11.5709C47.4294 12.3676 47.5939 13.1817 47.5939 14.013C47.5939 14.9137 47.4294 15.7277 47.1003 16.4551ZM52.5299 7.80365H50.1138L54.946 15.3119V20.2222H57.3102V15.26L52.5299 7.80365ZM62.1686 7.80365H59.9083L57.0505 11.8827L58.3235 13.5974L62.1686 7.80365ZM64.0651 20.1962H66.2215V13.5712L64.0651 10.5316V20.1962ZM72.6906 7.82959V16.377L66.5854 7.82959H64.2472L73.0284 20.1963H74.821V7.82959H72.6906ZM78.1204 7.82959H87.3695V9.80408H78.1204V7.82959ZM78.1204 18.2217H87.3432V20.1962H78.1204V18.2217ZM78.1204 12.9737H86.4599V14.9222H78.1204V12.9737ZM94.8774 17.1305L96.0465 15.5717L96.0205 15.5198L94.8774 17.1305ZM101.658 7.82959H99.1642L96.0726 12.2721L93.0069 7.82959H90.4349L94.7736 13.9088L90.2789 20.196H93.0588L101.658 7.82959ZM101.814 20.1962L98.3848 15.338L97.0857 17.0787L99.2681 20.1963L101.814 20.1962Z" fill="black"/>
</svg>
