<svg width="83" height="28" viewBox="0 0 83 28" fill="none" xmlns="http://www.w3.org/2000/svg">
<g clip-path="url(#clip0_2_931)">
<path fill-rule="evenodd" clip-rule="evenodd" d="M14.0848 0.0606229C16.8358 0.0790871 19.5203 0.912651 21.7988 2.45551C24.0771 3.99834 25.8479 6.18154 26.8879 8.73003C27.9279 11.2787 28.1907 14.0788 27.6427 16.7766C27.0947 19.4743 25.7601 21.9495 23.8083 23.8896C21.8566 25.8296 19.3744 27.1477 16.6749 27.678C13.9754 28.2083 11.1796 27.9266 8.63969 26.8689C6.09974 25.8112 3.92944 24.0248 2.40288 21.7345C0.876334 19.4443 0.0615955 16.7531 0.0615234 14.0001C0.0740124 10.2908 1.55859 6.73837 4.18849 4.12424C6.81831 1.51021 10.378 0.0483998 14.0848 0.0606229ZM10.7179 21.0378L14.1496 23.0172L15.7467 22.0942L12.3157 20.1148L10.7179 21.0378ZM13.2915 13.5945V18.5592L17.5798 21.0378H17.5858L21.8787 18.5592V13.5945L17.5858 11.1129L13.2915 13.5945ZM6.42125 15.6938V18.5471L8.89004 19.9738L11.3603 18.5464V15.693L8.89155 14.2671L6.42125 15.6938ZM6.42125 9.62208V13.5779L8.89155 12.152L11.4591 13.6352V12.5395L17.5851 8.99999L21.8787 11.4808V9.62208L14.1496 5.1573L6.42125 9.62208Z" fill="black"/>
<path d="M37.4591 9.15114V13.3891H45.1999V16.3633H37.4591V22.2058H33.5887V6.16883H46.2266V9.15114H37.4591Z" fill="black"/>
<path d="M47.9224 6.16883H51.6482V22.2042H47.9224V6.16883Z" fill="black"/>
<path d="M67.5017 9.34085V22.2026H63.9671V20.6728C63.4654 21.2306 62.8492 21.6731 62.1606 21.9702C61.472 22.2673 60.7274 22.4118 59.9778 22.3939C56.7524 22.3939 54.4823 20.5772 54.4823 16.6061V9.34085H58.2097V16.0611C58.2097 18.213 59.1648 19.1696 60.8132 19.1696C62.5331 19.1696 63.7751 18.0699 63.7751 15.7018V9.34085H67.5017Z" fill="black"/>
<path d="M78.2549 22.2042L75.4361 18.258L72.5256 22.2042H68.4592L73.4036 15.7235L68.6279 9.34085H72.8052L75.5365 13.0949L78.332 9.34085H82.298L77.519 15.6278L82.4835 22.2042H78.2549Z" fill="black"/>
</g>
<defs>
<clipPath id="clip0_2_931">
<rect width="82.6207" height="28" fill="white"/>
</clipPath>
</defs>
</svg>
