<svg width="88" height="24" viewBox="0 0 88 24" fill="none" xmlns="http://www.w3.org/2000/svg">
<path d="M3.58944 23.6129H0V15.695C0 13.5836 0.598241 12.2463 2.60411 11.824C0.914956 11.3666 0 10.2405 0 8.12903V5.17302C0 1.8651 2.14663 0.387096 5.59531 0.387096H9.14956V3.55425H5.59531C4.15249 3.55425 3.58944 4.29325 3.58944 5.87683V7.91789C3.58944 9.43108 4.29326 10.2405 5.59531 10.2405H8.72727V13.4076H5.2434C3.94135 13.4076 3.58944 14.217 3.58944 15.7302V23.6129Z" fill="black"/>
<path d="M16.6702 0C20.1189 0 22.6526 2.18182 22.6526 5.48973V18.5103C22.6526 21.8182 20.1189 24 16.6702 24C13.2215 24 10.6878 21.8182 10.6878 18.5103V5.48973C10.6878 2.18182 13.2215 0 16.6702 0ZM16.6702 3.16715C15.2274 3.16715 14.2772 4.08211 14.2772 5.84164V18.1584C14.2772 19.9179 15.2274 20.8328 16.6702 20.8328C18.113 20.8328 19.0631 19.9179 19.0631 18.1584V5.84164C19.0631 4.08211 18.113 3.16715 16.6702 3.16715Z" fill="black"/>
<path d="M28.5047 0.387096V18.1584C28.5047 19.9179 29.4548 20.8328 30.8976 20.8328C32.3405 20.8328 33.2906 19.9179 33.2906 18.1584V0.387096H36.88V18.5103C36.88 21.8182 34.3463 24 30.8976 24C27.449 24 24.9152 21.8182 24.9152 18.5103V0.387096H28.5047Z" fill="black"/>
<path d="M45.1251 0C48.5738 0 51.1075 2.18182 51.1075 5.48973V23.6129H47.518V5.84164C47.518 4.08211 46.5679 3.16715 45.1251 3.16715C43.6823 3.16715 42.7321 4.08211 42.7321 5.84164V23.6129H39.1427V5.48973C39.1427 2.18182 41.6764 0 45.1251 0Z" fill="black"/>
<path d="M52.6663 0.387096H63.9977V3.55425H60.1267V23.6129H56.5373V3.55425H52.6663V0.387096Z" fill="black"/>
<path d="M71.518 0C74.9667 0 77.5005 2.18182 77.5005 5.48973V23.6129H73.911V5.84164C73.911 4.08211 72.9609 3.16715 71.518 3.16715C70.0752 3.16715 69.1251 4.08211 69.1251 5.84164V23.6129H65.5357V5.48973C65.5357 2.18182 68.0694 0 71.518 0Z" fill="black"/>
<path d="M84.4577 23.963C83.698 23.963 83.0464 23.6959 82.5028 23.1616C81.9658 22.6207 81.7006 21.9644 81.7071 21.1926C81.7006 20.4407 81.9658 19.7975 82.5028 19.2632C83.0464 18.7289 83.698 18.4618 84.4577 18.4618C85.1781 18.4618 85.8133 18.7289 86.3634 19.2632C86.9201 19.7975 87.2017 20.4407 87.2083 21.1926C87.2017 21.7071 87.0675 22.1755 86.8055 22.5976C86.5501 23.0132 86.2161 23.3463 85.8035 23.597C85.3909 23.841 84.9423 23.963 84.4577 23.963Z" fill="black"/>
</svg>
