<svg width="85" height="34" viewBox="0 0 85 34" fill="none" xmlns="http://www.w3.org/2000/svg">
<mask id="mask0_111_8072" style="mask-type:luminance" maskUnits="userSpaceOnUse" x="0" y="5" width="23" height="17">
<path fill-rule="evenodd" clip-rule="evenodd" d="M0 21.2043V5.55835H22.6687V21.2043H0H0Z" fill="white"/>
</mask>
<g mask="url(#mask0_111_8072)">
<path fill-rule="evenodd" clip-rule="evenodd" d="M0 5.55835H3.64754L6.69206 16.7045L9.67638 5.55835H13.143L16.0067 16.7045L19.1719 5.55835H22.6687L17.7852 21.2043H14.2583L11.3041 10.8051L8.44046 21.2043H4.82303L0 5.55835" fill="black"/>
</g>
<path fill-rule="evenodd" clip-rule="evenodd" d="M57.9992 21.2044H61.471V5.55838H57.9992V21.2044ZM57.999 3.29389H61.4708V0H57.999V3.29389Z" fill="black"/>
<path fill-rule="evenodd" clip-rule="evenodd" d="M52.4851 13.5872C52.4851 16.3241 50.3991 18.5281 47.788 18.5281C45.0444 18.5281 43.0909 16.4068 43.0909 13.5872V13.3814C43.0909 10.493 45.0009 8.44054 47.788 8.44054C50.3991 8.44054 52.4851 10.6445 52.4851 13.3814V13.5872ZM52.2808 0V6.99951C51.0434 5.93901 49.3428 5.28675 47.3795 5.35257C43.1863 5.28675 39.8232 8.86129 39.8232 13.3814V13.3814C39.8232 18.0416 43.1863 21.6161 47.3795 21.6161C49.3343 21.6161 51.0362 20.9484 52.2808 19.7633V21.2044H55.7526V0H52.2808V0Z" fill="black"/>
<path fill-rule="evenodd" clip-rule="evenodd" d="M34.7178 13.5872C34.7178 16.3241 32.6318 18.5281 30.0207 18.5281C27.2771 18.5281 25.3236 16.4068 25.3236 13.5872V13.3814C25.3236 10.493 27.2337 8.44054 30.0207 8.44054C32.6318 8.44054 34.7178 10.6445 34.7178 13.3814V13.5872ZM34.5137 5.55841V7.20535C33.2765 6.00217 31.5757 5.35254 29.6124 5.35254C25.4194 5.35254 22.0562 8.91267 22.0562 13.3814V13.5873C22.0562 18.056 25.4194 21.6161 29.6124 21.6161C31.5672 21.6161 33.2691 20.9511 34.5137 19.7633V21.2044H37.9855V5.55841H34.5137V5.55841Z" fill="black"/>
<path fill-rule="evenodd" clip-rule="evenodd" d="M22.8121 33.1969C21.045 33.1969 19.8291 31.9567 19.8291 30.2787V30.2625C19.8291 28.6494 21.0855 27.3281 22.804 27.3281C23.8254 27.3281 24.4414 27.6037 25.0332 28.1063L24.2469 29.0547C23.8092 28.6899 23.4201 28.4792 22.7635 28.4792C21.8556 28.4792 21.1342 29.2817 21.1342 30.2463V30.2625C21.1342 31.3001 21.8475 32.0621 22.8527 32.0621C23.3066 32.0621 23.7119 31.9486 24.028 31.7216V30.911H22.7716V29.8329H25.2358V32.2971C24.6522 32.7916 23.8497 33.1969 22.8121 33.1969ZM26.4357 33.0997V27.4255H29.0297C29.7511 27.4255 30.3104 27.6281 30.6833 28.001C30.9994 28.3171 31.1697 28.763 31.1697 29.298V29.3142C31.1697 30.2302 30.6752 30.8057 29.9538 31.0732L31.3399 33.0997H29.8808L28.6649 31.284H27.6841V33.0997H26.4357ZM27.6839 30.1815H28.9484C29.5564 30.1815 29.905 29.8572 29.905 29.379V29.3628C29.905 28.8278 29.5321 28.5522 28.9241 28.5522H27.6839V30.1815ZM35.0524 33.1969C33.3015 33.1969 32.0451 31.8918 32.0451 30.2787V30.2625C32.0451 28.6494 33.3177 27.3281 35.0686 27.3281C36.8195 27.3281 38.076 28.6332 38.076 30.2463V30.2625C38.076 31.8756 36.8033 33.1969 35.0524 33.1969ZM35.0685 32.0459C36.0737 32.0459 36.7708 31.2515 36.7708 30.2787V30.2625C36.7708 29.2898 36.0575 28.4792 35.0523 28.4792C34.0472 28.4792 33.35 29.2736 33.35 30.2463V30.2625C33.35 31.2353 34.0634 32.0459 35.0685 32.0459ZM41.8452 33.1969C40.1754 33.1969 38.9351 31.9081 38.9351 30.2787V30.2625C38.9351 28.6494 40.1511 27.3281 41.8939 27.3281C42.9639 27.3281 43.6042 27.6848 44.1311 28.2036L43.3367 29.1196C42.899 28.7224 42.4532 28.4792 41.8857 28.4792C40.9292 28.4792 40.2402 29.2736 40.2402 30.2463V30.2625C40.2402 31.2352 40.913 32.0459 41.8857 32.0459C42.5342 32.0459 42.9314 31.7865 43.3773 31.3812L44.1717 32.1837C43.588 32.8078 42.9395 33.1969 41.8452 33.1969ZM45.1687 33.0997V27.4255H49.4487V28.536H46.4089V29.6871H49.0839V30.7976H46.4089V31.9892H49.4892V33.0997H45.1687ZM50.5998 33.0997V27.4255H53.1937C53.9152 27.4255 54.4745 27.6281 54.8474 28.001C55.1635 28.3171 55.3337 28.763 55.3337 29.298V29.3142C55.3337 30.2302 54.8393 30.8057 54.1178 31.0732L55.504 33.0997H54.0449L52.829 31.284H51.8481V33.0997H50.5998ZM51.8481 30.1815H53.1127C53.7206 30.1815 54.0692 29.8572 54.0692 29.379V29.3628C54.0692 28.8278 53.6963 28.5522 53.0884 28.5522H51.8481V30.1815ZM58.0574 33.0997V30.8624L55.8769 27.4255H57.336L58.6897 29.7033L60.0677 27.4255H61.4863L59.3058 30.8381V33.0997H58.0574Z" fill="black"/>
<path opacity="0.3" fill-rule="evenodd" clip-rule="evenodd" d="M66.5371 3.71533L73.7867 12.2154H84.2128L76.9632 3.71533H66.5371" fill="black"/>
<path opacity="0.6" fill-rule="evenodd" clip-rule="evenodd" d="M66.5371 20.7154H76.9632L84.2128 12.2153H73.7867L66.5371 20.7154" fill="black"/>
</svg>
