<svg width="93" height="32" viewBox="0 0 93 32" fill="none" xmlns="http://www.w3.org/2000/svg">
<g clip-path="url(#clip0_4_57)">
<path d="M38.7363 7.99894H42.1897V14.6369L48.326 7.99894H52.6359L46.4996 14.3223L53.2321 24.0075H48.897L44.1694 16.811L42.1897 18.8525V24.0075H38.7363V7.99894Z" fill="black"/>
<path d="M57.2208 10.6225H54.097V7.99894H57.2208V10.6225ZM54.097 12.4157H57.2208V24.0075H54.097V12.4157Z" fill="black"/>
<path d="M59.6854 8.00108H62.8091V13.8302H62.8532C63.6216 12.6404 65.0302 12.1033 66.4388 12.1033C68.704 12.1033 71.1476 13.965 71.1476 18.202C71.1476 22.439 68.704 24.3221 66.4388 24.3221C64.7678 24.3221 63.3823 23.8063 62.7 22.5288H62.6559V24.0075H59.6875V8.00108H59.6854ZM65.3598 14.5021C63.5124 14.5021 62.6979 16.2739 62.6979 18.2255C62.6979 20.1771 63.5124 21.9254 65.3598 21.9254C67.2072 21.9254 68.0217 20.1535 68.0217 18.2255C68.0217 16.2975 67.2072 14.5021 65.3598 14.5021Z" fill="black"/>
<path d="M72.8543 15.9807C73.0307 12.9999 75.6464 12.1011 78.1992 12.1011C80.4643 12.1011 83.1934 12.6168 83.1934 15.3966V21.4268C83.1934 22.4818 83.3026 23.5346 83.5902 24.0054H80.4223C80.3132 23.6459 80.225 23.2671 80.2019 22.8841C79.211 23.9369 77.7583 24.3199 76.3749 24.3199C74.2189 24.3199 72.5037 23.2222 72.5037 20.8447C72.5037 18.2234 74.4393 17.5942 76.3749 17.3246C78.2873 17.0336 80.0697 17.0999 80.0697 15.7989C80.0697 14.4315 79.146 14.2303 78.0459 14.2303C76.8577 14.2303 76.0873 14.7246 75.9781 15.9786H72.8543V15.9807ZM80.0697 18.3368C79.5406 18.8076 78.4406 18.829 77.4728 19.0087C76.505 19.2099 75.6254 19.548 75.6254 20.7121C75.6254 21.8762 76.5281 22.1929 77.5379 22.1929C79.9815 22.1929 80.0676 20.2199 80.0676 19.5244V18.3368H80.0697Z" fill="black"/>
<path d="M85.4733 12.4157H88.4438V14.5684H88.4879C89.0589 13.1111 90.5998 12.1011 92.1176 12.1011C92.338 12.1011 92.6004 12.1461 92.7978 12.2124V15.1719C92.5102 15.1055 92.0504 15.0606 91.6768 15.0606C89.3885 15.0606 88.5971 16.7404 88.5971 18.7819V24.0054H85.4733V12.4135V12.4157Z" fill="black"/>
<path fill-rule="evenodd" clip-rule="evenodd" d="M13.788 0.804694C14.8419 -0.269533 16.5509 -0.269533 17.6047 0.804694L30.6016 14.0526C31.6554 15.129 31.6554 16.8709 30.6016 17.9452L17.6047 31.1933C16.5509 32.2675 14.8419 32.2675 13.788 31.1933L0.791367 17.9452C-0.262487 16.8688 -0.262487 15.1268 0.791367 14.0526L13.788 0.804694ZM16.3242 3.09213C15.9715 2.73264 15.4005 2.73266 15.0478 3.09213L3.02291 15.3495C2.67025 15.709 2.67023 16.2911 3.02291 16.6506L15.0478 28.9078C15.4005 29.2673 15.9715 29.2673 16.3242 28.9078L21.6963 23.4297C22.0385 23.0809 22.0385 22.5138 21.6963 22.165L21.7131 22.1779L16.2486 16.6057C15.9232 16.274 15.9316 15.7283 16.2674 15.3838L21.7047 9.84136C22.0469 9.49256 22.0469 8.92545 21.7047 8.57665L16.3242 3.09213Z" fill="black"/>
</g>
<defs>
<clipPath id="clip0_4_57">
<rect width="92.8" height="32" fill="white"/>
</clipPath>
</defs>
</svg>
