<svg fill="#FFFFFF" xmlns="http://www.w3.org/2000/svg" width="161.255" height="38.400" viewBox="0 0 161.255 38.400">
  <path d="M 32.467 32.467 L 29.711 32.888 L 29.711 2.663 L 37.419 2.663 L 37.419 37.7 L 27.375 37.7 L 4.952 7.475 L 7.661 7.054 L 7.661 37.7 L 0 37.7 L 0 2.663 L 10.277 2.663 L 32.467 32.467 Z" fill="#000" fill-rule="nonzero"></path>
  <path d="M 40.647 10.838 L 44.525 11.585 L 48.449 10.838 L 48.449 37.7 L 40.647 37.7 L 40.647 10.838 Z M 44.525 8.082 C 43.123 8.082 41.971 7.724 41.068 7.007 C 40.196 6.26 39.76 5.279 39.76 4.064 C 39.76 2.819 40.196 1.837 41.068 1.121 C 41.971 0.374 43.123 0 44.525 0 C 45.957 0 47.11 0.374 47.982 1.121 C 48.854 1.837 49.29 2.819 49.29 4.064 C 49.29 5.279 48.854 6.26 47.982 7.007 C 47.11 7.724 45.957 8.082 44.525 8.082 Z" fill="#000" fill-rule="nonzero"></path>
  <path d="M 81.569 26.861 C 81.257 29.135 80.37 31.144 78.906 32.888 C 77.473 34.632 75.62 35.987 73.347 36.952 C 71.073 37.918 68.535 38.4 65.732 38.4 C 62.556 38.4 59.753 37.824 57.323 36.672 C 54.925 35.488 53.041 33.838 51.671 31.72 C 50.332 29.602 49.662 27.173 49.662 24.432 C 49.662 21.66 50.332 19.231 51.671 17.145 C 53.041 15.027 54.925 13.376 57.323 12.193 C 59.753 11.009 62.556 10.418 65.732 10.418 C 68.535 10.418 71.073 10.916 73.347 11.912 C 75.62 12.878 77.473 14.233 78.906 15.977 C 80.37 17.69 81.257 19.698 81.569 22.003 L 73.767 22.003 C 73.362 20.197 72.428 18.811 70.964 17.845 C 69.532 16.849 67.788 16.35 65.732 16.35 C 64.082 16.35 62.633 16.677 61.388 17.331 C 60.173 17.954 59.239 18.873 58.585 20.088 C 57.931 21.271 57.604 22.719 57.604 24.432 C 57.604 26.114 57.931 27.562 58.585 28.777 C 59.239 29.96 60.173 30.879 61.388 31.533 C 62.633 32.156 64.082 32.467 65.732 32.467 C 67.819 32.467 69.578 31.953 71.011 30.926 C 72.475 29.898 73.394 28.543 73.767 26.861 L 81.569 26.861 Z" fill="#000" fill-rule="nonzero"></path>
  <path d="M 90.312 31.253 L 88.117 30.459 L 103.906 11.118 L 112.409 11.118 L 89.612 37.7 L 82.511 37.7 L 82.511 1.728 L 90.312 1.728 L 90.312 31.253 Z M 96.339 24.666 L 102.085 20.228 L 113.156 37.7 L 104.233 37.7 L 96.339 24.666 Z" fill="#000" fill-rule="nonzero"></path>
  <path d="M 118.989 30.318 L 118.989 23.872 L 143.282 23.872 L 143.282 30.318 L 118.989 30.318 Z M 136.414 2.663 L 152.812 37.7 L 144.356 37.7 L 130.014 5.886 L 132.63 5.886 L 118.289 37.7 L 109.833 37.7 L 126.23 2.663 L 136.414 2.663 Z" fill="#000" fill-rule="nonzero"></path>
  <path d="M 153.313 2.663 L 161.255 2.663 L 161.255 37.7 L 153.313 37.7 L 153.313 2.663 Z" fill="#000" fill-rule="nonzero"></path>
</svg>