<svg width="123" height="25" viewBox="0 0 123 25" fill="none" xmlns="http://www.w3.org/2000/svg">
<g clip-path="url(#clip0_4_70)">
<path fill-rule="evenodd" clip-rule="evenodd" d="M16.41 0C15.22 0 14.04 0.26 13.21 0.6C12.38 0.26 11.21 0 10.01 0C4.75 0 0 4.98 0 11.8C0 19.24 6.08 25 13.21 25C20.34 25 26.42 19.24 26.42 11.8C26.42 4.98 21.67 0 16.41 0ZM13.21 4.05C14.22 4.65 15.56 6.4 15.56 8.37C15.56 9.82 14.61 10.95 13.21 10.95C11.81 10.95 10.86 9.81 10.86 8.37C10.86 6.4 12.2 4.66 13.21 4.05ZM13.21 21.75C7.76 21.75 3.25 17.36 3.25 11.74C3.25 6.6 6.96 3.1 9.87 3.23C8.49 4.6 7.65 6.6 7.65 8.54C7.65 11.87 10.3 14.21 13.21 14.21C16.13 14.21 18.77 11.87 18.77 8.54C18.77 6.6 17.93 4.6 16.55 3.22C19.46 3.09 23.17 6.6 23.17 11.73C23.1786 13.0432 22.9272 14.3451 22.4305 15.5607C21.9337 16.7764 21.2014 17.8817 20.2756 18.8131C19.3498 19.7444 18.2489 20.4834 17.0362 20.9875C15.8236 21.4915 14.5232 21.7507 13.21 21.75ZM56.68 5.7V8.42H52.53V18.63H49.6V8.42H45.45V5.7H56.68ZM93.77 5.7H86.38V8.44H93.58C94.64 8.44 95.05 8.92 95.05 10.16V10.62H89.09C86.82 10.62 85.69 11.75 85.69 14.32V14.93C85.69 17.57 86.86 18.63 89.21 18.63H97.96V10.14C97.95 6.87 96.87 5.7 93.77 5.7ZM89.51 15.86C89.07 15.86 88.57 15.63 88.57 14.52C88.57 13.41 89.06 13.22 89.51 13.22H95.04V15.86H89.51ZM118.15 5.7H110.76V8.44H117.96C119.02 8.44 119.43 8.92 119.43 10.16V10.62H113.47C111.2 10.62 110.07 11.75 110.07 14.32V14.93C110.07 17.57 111.24 18.63 113.59 18.63H122.34V10.14C122.33 6.87 121.25 5.7 118.15 5.7ZM113.88 15.86C113.44 15.86 112.94 15.63 112.94 14.52C112.94 13.41 113.43 13.22 113.88 13.22H119.41V15.86H113.88ZM68.84 5.7V8.42H64.69V18.63H61.75V8.42H57.6V5.7H68.84ZM109.77 5.7V8.42H105.62V18.63H102.68V8.42H98.53V5.7H109.77ZM84.55 14.09V10.22C84.55 6.83 83.24 5.69 80.28 5.69H72.42V18.61H80.42C83.55 18.62 84.55 17.05 84.55 14.09ZM81.55 14.15C81.55 15.39 81.13 15.87 80.08 15.87H75.35V8.45H80.08C81.14 8.45 81.55 8.93 81.55 10.17V14.15ZM41.53 15.68C41.6 15.64 41.61 15.5 41.6 15.36C41.59 15.19 41.56 14.33 41.56 13.75V5.69H44.45V15.35C44.45 18.23 43.03 18.76 41.83 18.76C40.54 18.76 39.87 18.16 39.31 17.29C38.54 16.08 34.9 8.88 34.84 8.77C34.78 8.66 34.7 8.59 34.62 8.63C34.55 8.67 34.54 8.81 34.55 8.95C34.56 9.12 34.59 9.98 34.59 10.56V18.62H31.7V8.96C31.7 6.08 33.12 5.55 34.32 5.55C35.61 5.55 36.28 6.15 36.84 7.02C37.32 7.77 41.24 15.42 41.3 15.54C41.37 15.65 41.45 15.73 41.53 15.68Z" fill="black"/>
</g>
<defs>
<clipPath id="clip0_4_70">
<rect width="123" height="25" fill="white"/>
</clipPath>
</defs>
</svg>
