<svg width="162" height="28" viewBox="0 0 162 28" fill="none" xmlns="http://www.w3.org/2000/svg">
<path d="M93.6215 3.88724V21.2067H97.6458V0L93.6215 3.88724Z" fill="black"/>
<path d="M103.282 5.37574C102.616 5.37574 102.034 5.13656 101.535 4.65821C101.056 4.15906 100.817 3.57672 100.817 2.91121C100.817 2.24565 101.056 1.66332 101.535 1.16421C102.034 0.665055 102.616 0.415476 103.282 0.415476C103.968 0.415476 104.55 0.665055 105.029 1.16421C105.528 1.66332 105.777 2.24565 105.777 2.91121C105.777 3.57672 105.528 4.15906 105.029 4.65821C104.55 5.13656 103.968 5.37574 103.282 5.37574Z" fill="black"/>
<path d="M87.226 9.88861H80.4375V5.97355H83.1136V1.7529H87.2307V5.97355H90.7303V9.88861H87.2307V16.0604C87.2307 16.6012 87.3403 17.1075 87.6106 17.3571C87.881 17.6067 88.2761 17.7522 88.7961 17.7939C89.1636 17.8086 89.5935 17.78 90.0857 17.7473C90.2898 17.7337 90.5047 17.7195 90.7303 17.7073V21.4126C87.9642 21.7246 86.0092 21.4647 84.8653 20.6328C83.7422 19.8008 83.1136 18.4085 83.1136 16.2663V13.9567L87.226 9.88861Z" fill="black"/>
<path fill-rule="evenodd" clip-rule="evenodd" d="M62.425 19.251C60.8236 20.8316 58.8686 21.6219 56.5601 21.6219C54.2515 21.6219 52.2966 20.8316 50.6951 19.251C49.1145 17.6495 48.3242 15.6946 48.3242 13.386C48.3242 11.0775 49.1145 9.13289 50.6951 7.55229C52.2966 5.95084 54.2515 5.15013 56.5601 5.15013C58.8686 5.15013 60.8236 5.95084 62.425 7.55229C64.0264 9.13289 64.8271 11.0775 64.8271 13.386C64.8271 15.6946 64.0264 17.6495 62.425 19.251ZM53.534 16.4745C54.3451 17.2856 55.3538 17.6911 56.5601 17.6911C57.7663 17.6911 58.775 17.2856 59.5861 16.4745C60.3972 15.6633 60.8028 14.6339 60.8028 13.386C60.8028 12.1381 60.3972 11.1087 59.5861 10.2976C58.775 9.48645 57.7663 9.08092 56.5601 9.08092C55.3538 9.08092 54.3451 9.48645 53.534 10.2976C52.7437 11.1087 52.3486 12.1381 52.3486 13.386C52.3486 14.6339 52.7437 15.6633 53.534 16.4745Z" fill="black"/>
<path d="M71.0041 10.1556C71.0041 10.5716 71.2745 10.9147 71.8152 11.1851C72.3768 11.4347 73.0527 11.6635 73.843 11.8714C74.6333 12.0586 75.4236 12.3082 76.2139 12.6201C77.0043 12.9113 77.6698 13.4105 78.2105 14.1176C78.7721 14.8247 79.0528 15.7086 79.0528 16.7693C79.0528 18.3707 78.4497 19.6082 77.2434 20.4816C76.058 21.3343 74.6095 21.6185 72.8209 21.6185C69.6181 21.6185 67.3957 20.5232 66.2311 18.0483L69.7251 16.0829C70.1826 17.4348 71.2017 18.1107 72.7823 18.1107C74.2173 18.1107 74.9349 17.6635 74.9349 16.7693C74.9349 16.3533 74.6541 16.0205 74.0926 15.771C73.5518 15.5006 72.8863 15.2614 72.096 15.0535C71.3057 14.8455 70.5154 14.5855 69.7251 14.2735C68.9348 13.9616 68.2588 13.4728 67.6973 12.8073C67.1565 12.121 66.8862 11.2683 66.8862 10.2492C66.8862 8.71017 67.4477 7.50389 68.5708 6.63042C69.7147 5.73609 71.1289 5.28894 72.8135 5.28894C74.0822 5.28894 75.2364 5.58014 76.2763 6.16247C77.3162 6.724 78.1377 7.5351 78.7409 8.59579L75.3092 10.4676C74.8101 9.40689 73.9782 8.87657 72.8135 8.87657C72.2936 8.87657 71.8568 8.99096 71.5033 9.21973C71.1705 9.4485 71.0041 9.76045 71.0041 10.1556Z" fill="black"/>
<path fill-rule="evenodd" clip-rule="evenodd" d="M124.902 5.7677H120.991V7.62039C119.805 6.03974 118.136 5.28894 115.994 5.28894C113.81 5.28894 111.97 6.06889 110.472 7.62868C108.975 9.18852 108.226 11.0707 108.226 13.2753C108.226 15.5006 108.964 17.3932 110.441 18.953C111.938 20.492 113.846 21.2068 116.05 21.2068C118.193 21.2068 119.8 20.4712 120.985 18.8906V20.5752C120.985 21.8023 120.621 22.7486 119.893 23.4141C119.166 24.0796 118.142 24.2946 116.874 24.2946C114.94 24.2946 113.5 23.5883 112.757 22.2361L109.463 24.2946C110.213 25.5603 111.044 26.3882 112.313 27.0329C113.602 27.6776 115.152 28 116.836 28C119.082 28 120.933 27.3656 122.514 26.097C124.115 24.8284 124.902 23.0018 124.902 20.5892V5.7677ZM116.618 17.5492C115.349 17.5492 114.299 17.154 113.467 16.3637C112.656 15.5526 112.25 14.5231 112.25 13.2753C112.25 12.0482 112.656 11.0395 113.467 10.2492C114.299 9.4381 115.349 9.03252 116.618 9.03252C117.887 9.03252 118.926 9.4381 119.737 10.2492C120.569 11.0395 120.985 12.0482 120.985 13.2753C120.985 14.5231 120.569 15.5526 119.737 16.3637C118.926 17.154 117.887 17.5492 116.618 17.5492Z" fill="black"/>
<path d="M137.238 5.28894C138.943 5.28894 140.347 5.86087 141.45 7.00478C142.573 8.14865 143.134 9.72924 143.134 11.7466V21.3239H139.11V12.2458C139.11 11.2059 138.829 10.4156 138.267 9.87484C137.706 9.31331 136.957 9.03252 136.021 9.03252C134.981 9.03252 134.15 9.35488 133.526 9.99963C132.902 10.6443 132.725 11.4773 132.725 12.7668V21.2068H128.608V1.7529H132.725V7.41453C133.702 5.95867 135.117 5.28894 137.238 5.28894Z" fill="black"/>
<path d="M158.565 1.5137V1.96444H157.907V3.904H157.426V1.96444H156.771V1.5137H158.565Z" fill="black"/>
<path d="M161.255 3.904V1.5137H160.761L160.064 2.64397L159.363 1.5137H158.869V3.904H159.35V2.35714L160.036 3.46351H160.092L160.778 2.35372V3.904H161.255Z" fill="black"/>
<path d="M101.229 6.79697H105.346V21.2068H101.229V6.79697Z" fill="black"/>
<path fill-rule="evenodd" clip-rule="evenodd" d="M45.3714 2.84304C43.9364 1.42879 42.1686 0.621331 40.068 0.621331H31.0324V21.2068H35.3554V15.4429H40.09C42.1906 15.4429 43.9364 14.6769 45.3714 13.2627C46.8065 11.8484 47.5008 10.091 47.5008 8.0321C47.5008 5.9731 46.8065 4.25728 45.3714 2.84304ZM42.3454 10.4238C41.7422 11.0477 40.9941 11.3258 40.079 11.3258L35.3554 11.3597V4.73842L40.079 4.74604C40.9941 4.74604 41.7422 5.05798 42.3454 5.68193C42.9485 6.30588 43.1778 7.0754 43.1778 8.0321C43.1778 8.96799 42.9485 9.77907 42.3454 10.4238Z" fill="black"/>
<path d="M152.075 9.88861H155.574V5.97355H152.075V1.7529H147.958V5.97355H145.282V9.88861H147.958V16.2663C147.958 18.4085 148.586 19.8008 149.71 20.6328C150.853 21.4647 152.808 21.7246 155.574 21.4126V17.7073C155.349 17.7195 155.134 17.7337 154.93 17.7473C154.438 17.78 154.008 17.8086 153.64 17.7939C153.12 17.7522 152.725 17.6067 152.455 17.3571C152.184 17.1075 152.075 16.6012 152.075 16.0604V9.88861Z" fill="black"/>
<path d="M0 0.143257H21.473L0 21.178V0.143257Z" fill="black"/>
</svg>
