<svg width="113" height="30" viewBox="0 0 113 30" fill="none" xmlns="http://www.w3.org/2000/svg">
<path d="M12.0477 2.84595L0 9.80172V25.8H6.02386V13.2796L12.0477 9.80172V2.84595Z" fill="black"/>
<path d="M26.505 9.80172L14.4573 2.84595L14.4573 9.80172L17.2966 11.441L9.05259 16.4194V22.6602L14.4634 25.8H26.505L15.6621 19.5397L20.4811 16.7713V19.5397L26.505 23.0176V9.80172Z" fill="black"/>
<path d="M32.1 25.8V10.5H36.51V14.1H36.6V25.8H32.1ZM36.6 17.82L36.21 14.19C36.57 12.89 37.1599 11.9 37.98 11.22C38.8 10.54 39.82 10.2 41.04 10.2C41.4199 10.2 41.7 10.24 41.88 10.32V14.52C41.7799 14.48 41.64 14.46 41.46 14.46C41.28 14.44 41.0599 14.43 40.8 14.43C39.36 14.43 38.2999 14.69 37.62 15.21C36.94 15.7099 36.6 16.5799 36.6 17.82ZM50.1187 26.1C48.4188 26.1 46.9387 25.77 45.6787 25.11C44.4187 24.43 43.4388 23.49 42.7387 22.29C42.0588 21.09 41.7187 19.71 41.7187 18.15C41.7187 16.57 42.0588 15.19 42.7387 14.01C43.4388 12.81 44.4087 11.88 45.6487 11.22C46.8888 10.54 48.3288 10.2 49.9687 10.2C51.5487 10.2 52.9188 10.52 54.0787 11.16C55.2387 11.8 56.1387 12.69 56.7787 13.83C57.4188 14.97 57.7387 16.3099 57.7387 17.85C57.7387 18.1699 57.7287 18.4699 57.7087 18.75C57.6888 19.0099 57.6588 19.26 57.6187 19.5H44.3587V16.53H53.9887L53.2087 17.07C53.2087 15.8299 52.9087 14.92 52.3087 14.34C51.7287 13.74 50.9287 13.44 49.9087 13.44C48.7287 13.44 47.8087 13.84 47.1487 14.64C46.5087 15.4399 46.1887 16.6399 46.1887 18.24C46.1887 19.8 46.5087 20.9599 47.1487 21.72C47.8087 22.48 48.7887 22.86 50.0887 22.86C50.8087 22.86 51.4287 22.74 51.9487 22.5C52.4688 22.26 52.8588 21.87 53.1187 21.33H57.3487C56.8488 22.81 55.9887 23.98 54.7687 24.84C53.5687 25.68 52.0188 26.1 50.1187 26.1ZM68.5753 26.1C67.1152 26.1 65.9253 25.7599 65.0053 25.08C64.1053 24.4 63.5752 23.47 63.4153 22.29L63.6553 22.26V25.8H59.2453V4.19997H63.7453V13.89L63.4753 13.83C63.6952 12.71 64.2753 11.83 65.2153 11.19C66.1753 10.53 67.3753 10.2 68.8153 10.2C70.1953 10.2 71.3853 10.53 72.3853 11.19C73.4053 11.83 74.1853 12.74 74.7253 13.92C75.2853 15.1 75.5653 16.4899 75.5653 18.09C75.5653 19.71 75.2752 21.12 74.6953 22.32C74.1153 23.52 73.3053 24.45 72.2653 25.11C71.2252 25.77 69.9952 26.1 68.5753 26.1ZM67.3153 22.5C68.3752 22.5 69.2353 22.12 69.8953 21.36C70.5553 20.5999 70.8853 19.5199 70.8853 18.12C70.8853 16.72 70.5453 15.6499 69.8653 14.91C69.2053 14.17 68.3353 13.8 67.2553 13.8C66.2152 13.8 65.3553 14.18 64.6753 14.94C64.0153 15.6799 63.6853 16.75 63.6853 18.15C63.6853 19.5499 64.0153 20.6299 64.6753 21.39C65.3553 22.1299 66.2353 22.5 67.3153 22.5ZM84.7362 26.1C83.0562 26.1 81.5761 25.77 80.2962 25.11C79.0362 24.43 78.0462 23.49 77.3262 22.29C76.6261 21.07 76.2762 19.6699 76.2762 18.09C76.2762 16.51 76.6261 15.13 77.3262 13.95C78.0462 12.77 79.0362 11.85 80.2962 11.19C81.5761 10.53 83.0562 10.2 84.7362 10.2C86.4361 10.2 87.9162 10.53 89.1762 11.19C90.4561 11.85 91.4461 12.77 92.1462 13.95C92.8461 15.13 93.1962 16.51 93.1962 18.09C93.1962 19.6699 92.8362 21.07 92.1162 22.29C91.4161 23.49 90.4261 24.43 89.1462 25.11C87.8862 25.77 86.4162 26.1 84.7362 26.1ZM84.7362 22.56C85.4361 22.56 86.0661 22.38 86.6262 22.02C87.2061 21.66 87.6661 21.15 88.0062 20.49C88.3461 19.81 88.5162 19 88.5162 18.06C88.5162 16.68 88.1461 15.6199 87.4062 14.88C86.6862 14.12 85.7961 13.74 84.7362 13.74C83.6761 13.74 82.7761 14.12 82.0362 14.88C81.3162 15.64 80.9562 16.6999 80.9562 18.06C80.9562 19 81.1261 19.81 81.4662 20.49C81.8061 21.15 82.2561 21.66 82.8162 22.02C83.3961 22.38 84.0361 22.56 84.7362 22.56ZM94.6816 25.8V4.19997H99.1816V25.8H94.6816ZM109.128 26.13C107.168 26.13 105.708 25.66 104.748 24.72C103.808 23.76 103.338 22.3099 103.338 20.37V7.07997L107.838 5.39997V20.52C107.838 21.1999 108.028 21.7099 108.408 22.05C108.788 22.39 109.378 22.56 110.178 22.56C110.478 22.56 110.758 22.53 111.018 22.47C111.278 22.41 111.538 22.3399 111.798 22.26V25.68C111.538 25.8199 111.168 25.93 110.688 26.01C110.228 26.0899 109.708 26.13 109.128 26.13ZM100.488 13.92V10.5H111.798V13.92H100.488Z" fill="black"/>
</svg>
