<svg width="158" height="32" viewBox="0 0 158 32" fill="none" xmlns="http://www.w3.org/2000/svg">
<path fill-rule="evenodd" clip-rule="evenodd" d="M20.3809 8.73223C20.7944 8.41224 21.3026 8.2386 21.8256 8.2386H29.8149C29.9777 8.2386 30.1098 8.37051 30.1098 8.53323V13.2473C30.1098 13.41 29.9777 13.5419 29.8149 13.5419H23.641C23.118 13.5419 22.6098 13.7155 22.1963 14.0355L9.73487 23.6794C9.3214 23.9994 8.81321 24.173 8.29019 24.173H0.571261C0.408395 24.173 0.276367 24.0411 0.276367 23.8784V19.1644C0.276367 19.0016 0.408395 18.8697 0.57126 18.8697H6.47484C6.99785 18.8697 7.50604 18.6961 7.91951 18.3761L20.3809 8.73223Z" fill="black"/>
<path fill-rule="evenodd" clip-rule="evenodd" d="M19.8605 4.46998C19.9591 4.59997 19.9332 4.78519 19.8028 4.88324L7.25347 14.3202C6.84453 14.6277 6.34658 14.7941 5.83475 14.7941H0.571261C0.408395 14.7941 0.276367 14.6621 0.276367 14.4994V9.78539C0.276367 9.62268 0.408396 9.49077 0.571261 9.49077H4.05225C4.5638 9.49077 5.06149 9.32464 5.47031 9.01743L16.5998 0.654154C16.7297 0.55657 16.9141 0.582328 17.0121 0.711754L19.8605 4.46998Z" fill="black"/>
<path fill-rule="evenodd" clip-rule="evenodd" d="M10.6224 27.9397C10.5245 27.8105 10.5494 27.6265 10.6782 27.5279L23.128 18.0049C23.5397 17.69 24.0437 17.5194 24.5621 17.5194H29.8149C29.9777 17.5194 30.1098 17.6513 30.1098 17.814V22.528C30.1098 22.6907 29.9777 22.8226 29.8149 22.8226H26.3459C25.827 22.8226 25.3225 22.9936 24.9106 23.3091L13.8852 31.7537C13.7554 31.8531 13.5694 31.828 13.4706 31.6977L10.6224 27.9397Z" fill="black"/>
<path d="M55.2931 20.7708C55.2492 20.8148 55.1897 20.8395 55.1276 20.8395H48.8762C48.8142 20.8395 48.7547 20.8148 48.7108 20.7708L47.3903 19.4478C47.3464 19.4038 47.3218 19.3441 47.3218 19.282V18.1934C47.3218 18.0639 47.4265 17.9589 47.5558 17.9589H48.8796C49.0088 17.9589 49.1136 18.0639 49.1136 18.1934V18.5317C49.1136 18.5939 49.1383 18.6535 49.1821 18.6975L49.4596 18.9755C49.5035 19.0194 49.563 19.0441 49.6251 19.0441H54.3765C54.4399 19.0441 54.5006 19.0184 54.5447 18.9727L54.811 18.697C54.8532 18.6532 54.8769 18.5948 54.8769 18.5339V17.6798C54.8769 17.5632 54.7913 17.4643 54.6761 17.4477L47.5226 16.4202C47.4073 16.4036 47.3218 16.3047 47.3218 16.1881V13.0184C47.3218 12.9562 47.3464 12.8966 47.3903 12.8526L48.7108 11.5296C48.7547 11.4856 48.8142 11.4609 48.8762 11.4609H55.1276C55.1897 11.4609 55.2492 11.4856 55.2931 11.5296L56.6135 12.8526C56.6574 12.8966 56.6821 12.9562 56.6821 13.0184V14.107C56.6821 14.2365 56.5773 14.3415 56.448 14.3415H55.1109C54.9816 14.3415 54.8769 14.2365 54.8769 14.107V13.7665C54.8769 13.7056 54.8532 13.6471 54.811 13.6034L54.5447 13.3277C54.5006 13.282 54.4399 13.2563 54.3765 13.2563H49.6251C49.563 13.2563 49.5035 13.281 49.4596 13.3249L49.1821 13.6029C49.1383 13.6469 49.1136 13.7065 49.1136 13.7687V14.6205C49.1136 14.7372 49.1992 14.8361 49.3145 14.8526L56.4812 15.8802C56.5964 15.8968 56.6821 15.9957 56.6821 16.1123V19.282C56.6821 19.3441 56.6574 19.4038 56.6135 19.4478L55.2931 20.7708Z" fill="black"/>
<path d="M69.8815 20.7708C69.8376 20.8148 69.7781 20.8395 69.716 20.8395H63.7193C63.6569 20.8395 63.5971 20.8145 63.5532 20.7701L62.1118 19.3137C62.0683 19.2697 62.0439 19.2104 62.0439 19.1486V13.1518C62.0439 13.09 62.0683 13.0306 62.1118 12.9867L63.5532 11.5303C63.5971 11.4859 63.6569 11.4609 63.7193 11.4609H69.716C69.7781 11.4609 69.8376 11.4856 69.8815 11.5296L71.3357 12.9866C71.3795 13.0306 71.4042 13.0902 71.4042 13.1524V19.148C71.4042 19.2102 71.3795 19.2698 71.3357 19.3138L69.8815 20.7708ZM63.9064 13.7232C63.8612 13.7673 63.8358 13.8278 63.8358 13.891V18.4111C63.8358 18.4733 63.8604 18.5329 63.9043 18.5769L64.3021 18.9755C64.346 19.0194 64.4055 19.0441 64.4676 19.0441H68.9788C69.0419 19.0441 69.1023 19.0186 69.1464 18.9734L69.5326 18.5765C69.5752 18.5327 69.599 18.474 69.599 18.4128V13.8893C69.599 13.8271 69.5744 13.7675 69.5305 13.7235L69.1461 13.3383C69.1022 13.2944 69.0426 13.2697 68.9806 13.2697H64.4658C64.4048 13.2697 64.3462 13.2935 64.3025 13.3362L63.9064 13.7232Z" fill="black"/>
<path d="M78.4831 11.4609C78.6124 11.4609 78.7171 11.5659 78.7171 11.6954V18.8097C78.7171 18.9392 78.8219 19.0441 78.9511 19.0441H84.9685C85.0977 19.0441 85.2025 19.1491 85.2025 19.2786V20.605C85.2025 20.7345 85.0977 20.8395 84.9685 20.8395H77.1593C77.0301 20.8395 76.9253 20.7345 76.9253 20.605V11.6954C76.9253 11.5659 77.0301 11.4609 77.1593 11.4609H78.4831Z" fill="black"/>
<path d="M91.8847 20.605C91.8847 20.7345 91.7799 20.8395 91.6507 20.8395H90.3269C90.1977 20.8395 90.0929 20.7345 90.0929 20.605V11.6954C90.0929 11.5659 90.1977 11.4609 90.3269 11.4609H91.6507C91.7799 11.4609 91.8847 11.5659 91.8847 11.6954V20.605Z" fill="black"/>
<path d="M100.797 20.8395C100.667 20.8395 100.563 20.7345 100.563 20.605V13.4907C100.563 13.3612 100.458 13.2563 100.329 13.2563H97.0124C96.8831 13.2563 96.7784 13.1513 96.7784 13.0218V11.6954C96.7784 11.5659 96.8831 11.4609 97.0124 11.4609H105.905C106.034 11.4609 106.139 11.5659 106.139 11.6954V13.0218C106.139 13.1513 106.034 13.2563 105.905 13.2563H102.588C102.459 13.2563 102.354 13.3612 102.354 13.4907V20.605C102.354 20.7345 102.25 20.8395 102.12 20.8395H100.797Z" fill="black"/>
<path d="M118.726 20.7708C118.682 20.8148 118.622 20.8395 118.56 20.8395H112.564C112.501 20.8395 112.441 20.8145 112.397 20.7701L110.956 19.3137C110.913 19.2697 110.888 19.2104 110.888 19.1486V13.1518C110.888 13.09 110.913 13.0306 110.956 12.9867L112.397 11.5303C112.441 11.4859 112.501 11.4609 112.564 11.4609H118.56C118.622 11.4609 118.682 11.4856 118.726 11.5296L120.18 12.9866C120.224 13.0306 120.248 13.0902 120.248 13.1524V19.148C120.248 19.2102 120.224 19.2698 120.18 19.3138L118.726 20.7708ZM112.751 13.7232C112.705 13.7673 112.68 13.8278 112.68 13.891V18.4111C112.68 18.4733 112.705 18.5329 112.749 18.5769L113.146 18.9755C113.19 19.0194 113.25 19.0441 113.312 19.0441H117.823C117.886 19.0441 117.947 19.0186 117.991 18.9734L118.377 18.5765C118.419 18.5327 118.443 18.474 118.443 18.4128V13.8893C118.443 13.8271 118.419 13.7675 118.375 13.7235L117.99 13.3383C117.946 13.2944 117.887 13.2697 117.825 13.2697H113.31C113.249 13.2697 113.19 13.2935 113.147 13.3362L112.751 13.7232Z" fill="black"/>
<path d="M133.325 18.9035C133.325 18.774 133.22 18.669 133.091 18.669H131.752C131.681 18.669 131.614 18.6367 131.57 18.5813L127.978 14.0977C127.84 13.925 127.561 14.0231 127.561 14.2445V20.605C127.561 20.7345 127.457 20.8395 127.327 20.8395H126.004C125.874 20.8395 125.77 20.7345 125.77 20.605V11.6954C125.77 11.5659 125.874 11.4609 126.004 11.4609H128.064C128.135 11.4609 128.202 11.4933 128.247 11.549L132.425 16.7856C132.47 16.8413 132.537 16.8737 132.608 16.8737H133.091C133.22 16.8737 133.325 16.7687 133.325 16.6392V11.6954C133.325 11.5659 133.429 11.4609 133.559 11.4609H134.896C135.025 11.4609 135.13 11.5659 135.13 11.6954V20.605C135.13 20.7345 135.025 20.8395 134.896 20.8395H133.559C133.429 20.8395 133.325 20.7345 133.325 20.605V18.9035Z" fill="black"/>
<path d="M142.583 20.605C142.583 20.7345 142.478 20.8395 142.349 20.8395H141.025C140.896 20.8395 140.791 20.7345 140.791 20.605V11.6954C140.791 11.5659 140.896 11.4609 141.025 11.4609H142.349C142.478 11.4609 142.583 11.5659 142.583 11.6954V20.605Z" fill="black"/>
<path d="M155.956 20.7708C155.912 20.8148 155.853 20.8395 155.791 20.8395H149.794C149.732 20.8395 149.672 20.8145 149.628 20.7701L148.187 19.3137C148.143 19.2697 148.119 19.2104 148.119 19.1486V13.1518C148.119 13.09 148.143 13.0306 148.187 12.9867L149.628 11.5303C149.672 11.4859 149.732 11.4609 149.794 11.4609H155.791C155.853 11.4609 155.912 11.4856 155.956 11.5296L157.41 12.9866C157.454 13.0306 157.479 13.0902 157.479 13.1524V14.107C157.479 14.2365 157.374 14.3415 157.245 14.3415H155.908C155.779 14.3415 155.674 14.2365 155.674 14.107V13.8876C155.674 13.8264 155.65 13.7677 155.607 13.7239L155.221 13.327C155.177 13.2818 155.117 13.2563 155.054 13.2563H150.542C150.48 13.2563 150.421 13.281 150.377 13.3249L149.979 13.7235C149.935 13.7675 149.911 13.8271 149.911 13.8893V18.4111C149.911 18.4733 149.935 18.5329 149.979 18.5769L150.377 18.9755C150.421 19.0194 150.48 19.0441 150.542 19.0441H155.054C155.117 19.0441 155.177 19.0186 155.221 18.9734L155.607 18.5765C155.65 18.5327 155.674 18.474 155.674 18.4128V18.1934C155.674 18.0639 155.779 17.9589 155.908 17.9589H157.245C157.374 17.9589 157.479 18.0639 157.479 18.1934V19.148C157.479 19.2102 157.454 19.2698 157.41 19.3138L155.956 20.7708Z" fill="black"/>
</svg>
