<svg width="86" height="32" viewBox="0 0 86 32" fill="none" xmlns="http://www.w3.org/2000/svg">
<g clip-path="url(#clip0_3_11)">
<path d="M13.2235 7.63482L6.61082 3.81741L0 7.63482V3.81741L6.61176 0L13.2245 3.81741L13.2235 7.63482Z" fill="black"/>
<path d="M0 10.8404H3.46353V19.2555C3.46353 21.4296 5.08706 22.4894 6.61176 22.4894C8.14965 22.4894 9.76094 21.4014 9.76094 19.2263V10.8404H13.2245V19.4559C13.2245 21.4588 12.5948 23.0042 11.3355 24.0639C10.0753 25.1228 8.50165 25.6385 6.58259 25.6385C4.66541 25.6385 3.09082 25.1237 1.86071 24.0639C0.629647 23.0051 0 21.5171 0 19.5416V10.8404ZM43.168 21.2988C42.1195 22.2324 40.9252 22.6898 39.5633 22.6898C37.0786 22.6898 35.4127 21.2743 35.2245 19.0823H46.4151C46.4151 19.0823 46.4904 18.3745 46.4904 17.7101C46.4904 15.6489 45.8315 13.9312 44.4856 12.5289C43.1699 11.1265 41.4532 10.4395 39.3628 10.4395C37.1595 10.4395 35.3553 11.1265 33.9238 12.5289C32.5214 13.9312 31.8061 15.7628 31.8061 18.0536V18.1665C31.8061 20.4282 32.5214 22.2315 33.9238 23.5774C35.3261 24.9223 37.1868 25.6094 39.4485 25.6094C42.0781 25.6094 44.1704 24.5722 45.7402 22.7839L43.168 21.2988ZM36.5854 14.2748C37.3572 13.6734 38.3031 13.359 39.3619 13.359C40.3633 13.359 41.1934 13.6734 41.9096 14.3039C42.5929 14.8781 42.9619 15.583 42.9939 16.3934H35.3129C35.424 15.5557 35.8475 14.8498 36.5864 14.2757L36.5854 14.2748ZM78.0329 27.5538C76.6278 30.8715 75.1576 31.9999 72.9035 31.9999H71.3412V28.9298H72.6042C73.3798 28.9298 74.1007 28.6381 74.7878 27.0531L75.4748 25.4663L69.5492 10.8404H73.0701L77.2781 21.3741L81.6009 10.8404H85.1209L78.0329 27.5538ZM26.7078 5.31665V12.1468C25.5727 11.1303 23.8071 10.5251 22.0998 10.5251C20.0668 10.5251 18.3501 11.2404 16.9478 12.6992C15.5736 14.1308 14.8866 15.9049 14.8866 18.0517C14.8866 20.1995 15.5736 21.9736 16.9478 23.4334C18.3501 24.8649 20.0678 25.5811 22.0998 25.5811C24.4433 25.5811 25.9247 24.6597 26.7078 23.9378V25.2658H30.1431V5.31759L26.7078 5.31665ZM25.6772 21.2018C24.8471 22.0319 23.7882 22.4621 22.5572 22.4621C21.3261 22.4621 20.3247 22.0319 19.4946 21.2018C18.6946 20.3717 18.2927 19.3129 18.2927 18.0536C18.2927 16.7934 18.6936 15.7345 19.4946 14.9044C20.3247 14.0743 21.3261 13.6451 22.5572 13.6451C23.7882 13.6451 24.8471 14.0743 25.6772 14.9044C26.5355 15.7345 26.9666 16.7934 26.9666 18.0536C26.9666 19.3129 26.5355 20.3717 25.6772 21.2018ZM64.2089 10.5543C61.6 10.5543 60.2438 11.6367 59.3148 12.6795C58.9431 11.9708 57.8965 10.5543 55.4513 10.5543C53.3845 10.5543 52.1666 11.599 51.5586 12.3425V10.8423H48.1534V25.2677H51.5586V16.9665C51.5586 15.0202 52.7614 13.6178 54.3633 13.6178C55.9962 13.6178 56.9402 14.8489 56.9402 16.8235V25.2668H60.3463V16.9656C60.3463 14.991 61.5191 13.6169 63.2075 13.6169C64.8395 13.6169 65.7835 14.8479 65.7835 16.8216V25.2658H69.2188V16.3359C69.2188 12.575 67.1972 10.5552 64.2089 10.5552V10.5543Z" fill="black"/>
</g>
<defs>
<clipPath id="clip0_3_11">
<rect width="85.6471" height="32" fill="white"/>
</clipPath>
</defs>
</svg>
