<svg width="64" height="21" viewBox="0 0 64 21" fill="none" xmlns="http://www.w3.org/2000/svg">
<g clip-path="url(#clip0_3_22)">
<path d="M2.41158 20.9754L0.21582 0H4.22549L5.37112 13.2348L6.51672 0H10.3355L11.4333 13.2348L12.5312 0H16.5886L14.3451 20.9754H9.42853L8.40222 10.8662L7.42369 20.9754H2.41158Z" fill="black"/>
<path d="M17.7524 0H24.0533C25.0558 0 25.8276 0.236044 26.3684 0.708133C26.9254 1.16394 27.2994 1.8151 27.4903 2.66161C27.6811 3.49184 27.7767 4.55811 27.7767 5.86041C27.7767 7.04879 27.6255 7.97668 27.3232 8.64413C27.0207 9.31155 26.4958 9.77552 25.7478 10.036C26.3684 10.1662 26.814 10.4836 27.0844 10.9883C27.3709 11.4929 27.5141 12.1767 27.5141 13.0395L27.4664 20.9754H23.4566V12.7709C23.4566 12.1848 23.3452 11.8104 23.1225 11.6476C22.8997 11.4848 22.4939 11.4034 21.9052 11.4034V20.9754H17.7524V0ZM22.9078 7.76507C23.4806 7.76507 23.7668 7.13019 23.7668 5.86041C23.7668 5.30694 23.743 4.89183 23.6953 4.61509C23.6477 4.33833 23.5601 4.15113 23.4327 4.05346C23.3056 3.93951 23.1225 3.88252 22.8839 3.88252H21.9291V7.76507H22.9078Z" fill="black"/>
<path d="M28.9355 20.9754V0H32.8975V20.9754H28.9355Z" fill="black"/>
<path d="M36.3002 20.9754V4.02904H33.8657V0H42.8398V4.02904H40.4054V20.9754H36.3002Z" fill="black"/>
<path d="M43.9971 20.9754V0H52.2072V4.05346H48.1738V8.13133H52.0402V12.0871H48.1738V16.8976H52.4698V20.9754H43.9971Z" fill="black"/>
<path d="M53.4746 0H59.7755C60.778 0 61.5496 0.236044 62.0906 0.708133C62.6476 1.16394 63.0214 1.8151 63.2125 2.66161C63.4034 3.49184 63.4987 4.55811 63.4987 5.86041C63.4987 7.04879 63.3477 7.97668 63.0454 8.64413C62.743 9.31155 62.218 9.77552 61.47 10.036C62.0906 10.1662 62.5363 10.4836 62.8067 10.9883C63.0931 11.4929 63.2363 12.1767 63.2363 13.0395L63.1884 20.9754H59.1788V12.7709C59.1788 12.1848 59.0674 11.8104 58.8447 11.6476C58.622 11.4848 58.2161 11.4034 57.6275 11.4034V20.9754H53.4746V0ZM58.63 7.76507C59.2026 7.76507 59.4891 7.13019 59.4891 5.86041C59.4891 5.30694 59.4652 4.89183 59.4176 4.61509C59.3699 4.33833 59.2824 4.15113 59.155 4.05346C59.0278 3.93951 58.8447 3.88252 58.6061 3.88252H57.6513V7.76507H58.63Z" fill="black"/>
</g>
<defs>
<clipPath id="clip0_3_22">
<rect width="63.7" height="21" fill="white"/>
</clipPath>
</defs>
</svg>
